<svg xmlns="http://www.w3.org/2000/svg" width="1024" height="1024" viewBox="0 0 1024 1024">
  <g id="symbol-white" fill="#231B47">
    <path d="M282 306 C 366 210, 559 178, 700 238 C 749 258, 784 287, 806 322 C 748 300, 688 293, 616 300 C 475 314, 373 365, 341 454 C 301 570, 378 676, 515 694 C 606 706, 684 683, 753 624 C 734 689, 690 742, 624 777 C 547 818, 432 817, 342 773 C 219 714, 163 589, 195 472 C 216 404, 242 352, 282 306 Z"/>
    <path d="M512 460 C 627 431, 747 439, 806 491 C 858 537, 848 624, 792 689 C 737 753, 663 790, 568 799 C 630 760, 672 722, 692 674 C 710 631, 703 596, 674 569 C 629 527, 549 517, 455 534 C 472 494, 486 470, 512 460 Z"/>
    <path d="M512 346 L524 465 L643 476 L524 487 L512 606 L500 487 L381 476 L500 465 Z"/>
  </g>
</svg>